<?xml version="1.0" standalone="no"?>
<!DOCTYPE svg PUBLIC "-//W3C//DTD SVG 20010904//EN"
 "http://www.w3.org/TR/2001/REC-SVG-20010904/DTD/svg10.dtd">
<svg version="1.0" xmlns="http://www.w3.org/2000/svg"
 width="335.000000pt" height="335.000000pt" viewBox="0 0 335.000000 335.000000"
 preserveAspectRatio="xMidYMid meet">
<metadata>
Created by potrace 1.14, written by Peter Selinger 2001-2017
</metadata>
<g transform="translate(0.000000,335.000000) scale(0.100000,-0.100000)"
fill="#000000" stroke="none">
<path d="M1520 3224 c-379 -47 -679 -192 -941 -453 -230 -231 -367 -486 -431
-804 -32 -160 -32 -424 0 -584 64 -318 201 -573 431 -804 231 -230 486 -367
804 -431 160 -32 424 -32 584 0 318 64 573 201 804 431 230 231 367 486 431
804 32 160 32 424 0 584 -64 318 -201 573 -431 804 -230 229 -488 368 -798
430 -105 20 -366 34 -453 23z"/>
</g>
</svg>
